<mxfile host="1302d498-cc8a-458a-adb3-fd58c4b5c1bf" modified="2020-09-11T16:42:13.100Z" agent="5.0 (Windows NT 10.0; Win64; x64) AppleWebKit/537.36 (KHTML, like Gecko) Code/1.48.2 Chrome/78.0.3904.130 Electron/7.3.2 Safari/537.36" etag="nA2Kcrolq-q3NyWrRTjv" version="13.1.3">
    <diagram id="6hGFLwfOUW9BJ-s0fimq" name="Page-1">
        <mxGraphModel dx="1732" dy="1192" grid="1" gridSize="10" guides="1" tooltips="1" connect="1" arrows="1" fold="1" page="0" pageScale="1" pageWidth="827" pageHeight="1169" math="0" shadow="0">
            <root>
                <mxCell id="0"/>
                <mxCell id="1" parent="0"/>
                <mxCell id="4" value="" style="edgeStyle=orthogonalEdgeStyle;rounded=0;orthogonalLoop=1;jettySize=auto;html=1;" edge="1" parent="1" source="2" target="3">
                    <mxGeometry relative="1" as="geometry"/>
                </mxCell>
                <mxCell id="2" value="&lt;div style=&quot;color: rgb(212 , 212 , 212) ; background-color: rgb(30 , 30 , 30) ; font-family: &amp;#34;consolas&amp;#34; , &amp;#34;courier new&amp;#34; , monospace ; font-size: 14px ; line-height: 19px&quot;&gt;&lt;span style=&quot;color: #dcdcaa&quot;&gt;reactive&lt;/span&gt;&lt;/div&gt;" style="rounded=0;whiteSpace=wrap;html=1;" vertex="1" parent="1">
                    <mxGeometry x="-730" y="255" width="120" height="60" as="geometry"/>
                </mxCell>
                <mxCell id="10" value="" style="edgeStyle=orthogonalEdgeStyle;rounded=0;orthogonalLoop=1;jettySize=auto;html=1;" edge="1" parent="1" source="3" target="9">
                    <mxGeometry relative="1" as="geometry"/>
                </mxCell>
                <mxCell id="3" value="&lt;div style=&quot;color: rgb(212 , 212 , 212) ; background-color: rgb(30 , 30 , 30) ; font-family: &amp;#34;consolas&amp;#34; , &amp;#34;courier new&amp;#34; , monospace ; font-size: 14px ; line-height: 19px&quot;&gt;&lt;div style=&quot;font-family: &amp;#34;consolas&amp;#34; , &amp;#34;courier new&amp;#34; , monospace ; line-height: 19px&quot;&gt;&lt;span style=&quot;color: #dcdcaa&quot;&gt;createReactiveObject&lt;/span&gt;&lt;/div&gt;&lt;/div&gt;" style="rounded=0;whiteSpace=wrap;html=1;" vertex="1" parent="1">
                    <mxGeometry x="-500" y="250" width="170" height="70" as="geometry"/>
                </mxCell>
                <mxCell id="14" style="edgeStyle=orthogonalEdgeStyle;rounded=0;orthogonalLoop=1;jettySize=auto;html=1;exitX=0.75;exitY=0;exitDx=0;exitDy=0;entryX=0.598;entryY=1.012;entryDx=0;entryDy=0;entryPerimeter=0;" edge="1" parent="1" source="9" target="7">
                    <mxGeometry relative="1" as="geometry"/>
                </mxCell>
                <mxCell id="15" style="edgeStyle=orthogonalEdgeStyle;rounded=0;orthogonalLoop=1;jettySize=auto;html=1;exitX=0.25;exitY=0;exitDx=0;exitDy=0;entryX=0;entryY=0.5;entryDx=0;entryDy=0;" edge="1" parent="1" source="9" target="6">
                    <mxGeometry relative="1" as="geometry"/>
                </mxCell>
                <mxCell id="33" style="edgeStyle=orthogonalEdgeStyle;rounded=0;orthogonalLoop=1;jettySize=auto;html=1;exitX=0.5;exitY=1;exitDx=0;exitDy=0;" edge="1" parent="1" source="9" target="30">
                    <mxGeometry relative="1" as="geometry"/>
                </mxCell>
                <mxCell id="9" value="&lt;div style=&quot;background-color: rgb(30 , 30 , 30) ; font-family: &amp;#34;consolas&amp;#34; , &amp;#34;courier new&amp;#34; , monospace ; font-size: 14px ; line-height: 19px&quot;&gt;&lt;div style=&quot;font-family: &amp;#34;consolas&amp;#34; , &amp;#34;courier new&amp;#34; , monospace ; line-height: 19px&quot;&gt;&lt;font color=&quot;#dcdcaa&quot;&gt;在两个weakMap中检查是否存在，如果存在直接返回&lt;/font&gt;&lt;/div&gt;&lt;/div&gt;" style="rounded=0;whiteSpace=wrap;html=1;" vertex="1" parent="1">
                    <mxGeometry x="-200" y="250" width="170" height="70" as="geometry"/>
                </mxCell>
                <mxCell id="21" value="&lt;div style=&quot;color: rgb(212 , 212 , 212) ; background-color: rgb(30 , 30 , 30) ; font-family: &amp;#34;consolas&amp;#34; , &amp;#34;courier new&amp;#34; , monospace ; font-size: 14px ; line-height: 19px&quot;&gt;&lt;div&gt;&lt;span style=&quot;color: #569cd6&quot;&gt;function&lt;/span&gt;&amp;nbsp;&lt;span style=&quot;color: #dcdcaa&quot;&gt;createInstrumentationGetter&lt;/span&gt;(&lt;span style=&quot;color: #9cdcfe&quot;&gt;instrumentations&lt;/span&gt;:&amp;nbsp;&lt;span style=&quot;color: #4ec9b0&quot;&gt;any&lt;/span&gt;)&amp;nbsp;{&lt;/div&gt;&lt;div&gt;&amp;nbsp;&amp;nbsp;&lt;span style=&quot;color: #6a9955&quot;&gt;//&amp;nbsp;instrumentations&amp;nbsp;=&amp;nbsp;{&lt;/span&gt;&lt;/div&gt;&lt;div&gt;&amp;nbsp;&amp;nbsp;&lt;span style=&quot;color: #6a9955&quot;&gt;//&amp;nbsp;&amp;nbsp;&amp;nbsp;get(key:&amp;nbsp;any)&amp;nbsp;{&lt;/span&gt;&lt;/div&gt;&lt;div&gt;&amp;nbsp;&amp;nbsp;&lt;span style=&quot;color: #6a9955&quot;&gt;//&amp;nbsp;&amp;nbsp;&amp;nbsp;&amp;nbsp;&amp;nbsp;return&amp;nbsp;get(this,&amp;nbsp;key,&amp;nbsp;toReadonly);&lt;/span&gt;&lt;/div&gt;&lt;div&gt;&amp;nbsp;&amp;nbsp;&lt;span style=&quot;color: #6a9955&quot;&gt;//&amp;nbsp;&amp;nbsp;&amp;nbsp;},&lt;/span&gt;&lt;/div&gt;&lt;div&gt;&amp;nbsp;&amp;nbsp;&lt;span style=&quot;color: #6a9955&quot;&gt;//&amp;nbsp;&amp;nbsp;&amp;nbsp;get&amp;nbsp;size()&amp;nbsp;{&lt;/span&gt;&lt;/div&gt;&lt;div&gt;&amp;nbsp;&amp;nbsp;&lt;span style=&quot;color: #6a9955&quot;&gt;//&amp;nbsp;&amp;nbsp;&amp;nbsp;&amp;nbsp;&amp;nbsp;return&amp;nbsp;size(this);&lt;/span&gt;&lt;/div&gt;&lt;div&gt;&amp;nbsp;&amp;nbsp;&lt;span style=&quot;color: #6a9955&quot;&gt;//&amp;nbsp;&amp;nbsp;&amp;nbsp;},&lt;/span&gt;&lt;/div&gt;&lt;div&gt;&amp;nbsp;&amp;nbsp;&lt;span style=&quot;color: #6a9955&quot;&gt;//&amp;nbsp;&amp;nbsp;&amp;nbsp;has,&lt;/span&gt;&lt;/div&gt;&lt;div&gt;&amp;nbsp;&amp;nbsp;&lt;span style=&quot;color: #6a9955&quot;&gt;//&amp;nbsp;&amp;nbsp;&amp;nbsp;add:&amp;nbsp;createReadonlyMethod(add,&amp;nbsp;OperationTypes.ADD),&lt;/span&gt;&lt;/div&gt;&lt;div&gt;&amp;nbsp;&amp;nbsp;&lt;span style=&quot;color: #6a9955&quot;&gt;//&amp;nbsp;&amp;nbsp;&amp;nbsp;set:&amp;nbsp;createReadonlyMethod(set,&amp;nbsp;OperationTypes.SET),&lt;/span&gt;&lt;/div&gt;&lt;div&gt;&amp;nbsp;&amp;nbsp;&lt;span style=&quot;color: #6a9955&quot;&gt;//&amp;nbsp;&amp;nbsp;&amp;nbsp;delete:&amp;nbsp;createReadonlyMethod(deleteEntry,&amp;nbsp;OperationTypes.DELETE),&lt;/span&gt;&lt;/div&gt;&lt;div&gt;&amp;nbsp;&amp;nbsp;&lt;span style=&quot;color: #6a9955&quot;&gt;//&amp;nbsp;&amp;nbsp;&amp;nbsp;clear:&amp;nbsp;createReadonlyMethod(clear,&amp;nbsp;OperationTypes.CLEAR),&lt;/span&gt;&lt;/div&gt;&lt;div&gt;&amp;nbsp;&amp;nbsp;&lt;span style=&quot;color: #6a9955&quot;&gt;//&amp;nbsp;&amp;nbsp;&amp;nbsp;forEach:&amp;nbsp;createForEach(true),&lt;/span&gt;&lt;/div&gt;&lt;div&gt;&amp;nbsp;&amp;nbsp;&lt;span style=&quot;color: #6a9955&quot;&gt;//&amp;nbsp;};&lt;/span&gt;&lt;/div&gt;&lt;div&gt;&amp;nbsp;&amp;nbsp;&lt;span style=&quot;color: #c586c0&quot;&gt;return&lt;/span&gt;&amp;nbsp;&lt;span style=&quot;color: #569cd6&quot;&gt;function&lt;/span&gt;&amp;nbsp;&lt;span style=&quot;color: #dcdcaa&quot;&gt;getInstrumented&lt;/span&gt;(&lt;/div&gt;&lt;div&gt;&amp;nbsp;&amp;nbsp;&amp;nbsp;&amp;nbsp;&lt;span style=&quot;color: #9cdcfe&quot;&gt;target&lt;/span&gt;:&amp;nbsp;&lt;span style=&quot;color: #4ec9b0&quot;&gt;any&lt;/span&gt;,&lt;/div&gt;&lt;div&gt;&amp;nbsp;&amp;nbsp;&amp;nbsp;&amp;nbsp;&lt;span style=&quot;color: #9cdcfe&quot;&gt;key&lt;/span&gt;:&amp;nbsp;&lt;span style=&quot;color: #4ec9b0&quot;&gt;string&lt;/span&gt;&amp;nbsp;|&amp;nbsp;&lt;span style=&quot;color: #4ec9b0&quot;&gt;symbol&lt;/span&gt;,&lt;/div&gt;&lt;div&gt;&amp;nbsp;&amp;nbsp;&amp;nbsp;&amp;nbsp;&lt;span style=&quot;color: #9cdcfe&quot;&gt;receiver&lt;/span&gt;:&amp;nbsp;&lt;span style=&quot;color: #4ec9b0&quot;&gt;any&lt;/span&gt;&lt;/div&gt;&lt;div&gt;&amp;nbsp;&amp;nbsp;)&amp;nbsp;{&lt;/div&gt;&lt;div&gt;&amp;nbsp;&amp;nbsp;&amp;nbsp;&amp;nbsp;&lt;span style=&quot;color: #6a9955&quot;&gt;//&amp;nbsp;如果instrumentations&amp;nbsp;包含key&amp;nbsp;&amp;nbsp;且&amp;nbsp;target&amp;nbsp;里也有这个key，暂且猜测，两者一样，就用&amp;nbsp;handler&amp;nbsp;，否则用target&lt;/span&gt;&lt;/div&gt;&lt;div&gt;&amp;nbsp;&amp;nbsp;&amp;nbsp;&amp;nbsp;&lt;span style=&quot;color: #9cdcfe&quot;&gt;target&lt;/span&gt;&amp;nbsp;=&lt;/div&gt;&lt;div&gt;&amp;nbsp;&amp;nbsp;&amp;nbsp;&amp;nbsp;&amp;nbsp;&amp;nbsp;&lt;span style=&quot;color: #dcdcaa&quot;&gt;hasOwn&lt;/span&gt;(&lt;span style=&quot;color: #9cdcfe&quot;&gt;instrumentations&lt;/span&gt;,&amp;nbsp;&lt;span style=&quot;color: #9cdcfe&quot;&gt;key&lt;/span&gt;)&amp;nbsp;&amp;amp;&amp;amp;&amp;nbsp;&lt;span style=&quot;color: #9cdcfe&quot;&gt;key&lt;/span&gt;&amp;nbsp;&lt;span style=&quot;color: #569cd6&quot;&gt;in&lt;/span&gt;&amp;nbsp;&lt;span style=&quot;color: #9cdcfe&quot;&gt;target&lt;/span&gt;&lt;/div&gt;&lt;div&gt;&amp;nbsp;&amp;nbsp;&amp;nbsp;&amp;nbsp;&amp;nbsp;&amp;nbsp;&amp;nbsp;&amp;nbsp;?&amp;nbsp;&lt;span style=&quot;color: #9cdcfe&quot;&gt;instrumentations&lt;/span&gt;&lt;/div&gt;&lt;div&gt;&amp;nbsp;&amp;nbsp;&amp;nbsp;&amp;nbsp;&amp;nbsp;&amp;nbsp;&amp;nbsp;&amp;nbsp;:&amp;nbsp;&lt;span style=&quot;color: #9cdcfe&quot;&gt;target&lt;/span&gt;;&lt;/div&gt;&lt;div&gt;&amp;nbsp;&amp;nbsp;&amp;nbsp;&amp;nbsp;&lt;span style=&quot;color: #c586c0&quot;&gt;return&lt;/span&gt;&amp;nbsp;&lt;span style=&quot;color: #4ec9b0&quot;&gt;Reflect&lt;/span&gt;.&lt;span style=&quot;color: #dcdcaa&quot;&gt;get&lt;/span&gt;(&lt;span style=&quot;color: #9cdcfe&quot;&gt;target&lt;/span&gt;,&amp;nbsp;&lt;span style=&quot;color: #9cdcfe&quot;&gt;key&lt;/span&gt;,&amp;nbsp;&lt;span style=&quot;color: #9cdcfe&quot;&gt;receiver&lt;/span&gt;);&lt;/div&gt;&lt;div&gt;&amp;nbsp;&amp;nbsp;};&lt;/div&gt;&lt;div&gt;}&lt;/div&gt;&lt;br&gt;&lt;/div&gt;" style="rounded=0;whiteSpace=wrap;html=1;align=left;" vertex="1" parent="1">
                    <mxGeometry x="-765" y="710" width="700" height="610" as="geometry"/>
                </mxCell>
                <mxCell id="12" value="&lt;div style=&quot;color: rgb(212 , 212 , 212) ; background-color: rgb(30 , 30 , 30) ; font-family: &amp;#34;consolas&amp;#34; , &amp;#34;courier new&amp;#34; , monospace ; font-size: 14px ; line-height: 19px&quot;&gt;&lt;div style=&quot;font-family: &amp;#34;consolas&amp;#34; , &amp;#34;courier new&amp;#34; , monospace ; line-height: 19px&quot;&gt;&lt;br&gt;&lt;/div&gt;&lt;/div&gt;" style="rounded=0;whiteSpace=wrap;html=1;" vertex="1" parent="1">
                    <mxGeometry x="210" y="730" width="170" height="70" as="geometry"/>
                </mxCell>
                <mxCell id="6" value="&lt;span class=&quot;mtk5&quot; style=&quot;color: rgb(86 , 156 , 214) ; font-family: &amp;#34;consolas&amp;#34; , &amp;#34;courier new&amp;#34; , monospace ; font-size: 14px ; background-color: rgb(37 , 37 , 38)&quot;&gt;const&lt;/span&gt;&lt;span class=&quot;mtk1&quot; style=&quot;color: rgb(212 , 212 , 212) ; font-family: &amp;#34;consolas&amp;#34; , &amp;#34;courier new&amp;#34; , monospace ; font-size: 14px ; background-color: rgb(37 , 37 , 38)&quot;&gt; &lt;/span&gt;&lt;span class=&quot;mtk18&quot; style=&quot;color: rgb(79 , 193 , 255) ; font-family: &amp;#34;consolas&amp;#34; , &amp;#34;courier new&amp;#34; , monospace ; font-size: 14px ; background-color: rgb(37 , 37 , 38)&quot;&gt;rawToReadonly&lt;/span&gt;&lt;span class=&quot;mtk1&quot; style=&quot;color: rgb(212 , 212 , 212) ; font-family: &amp;#34;consolas&amp;#34; , &amp;#34;courier new&amp;#34; , monospace ; font-size: 14px ; background-color: rgb(37 , 37 , 38)&quot;&gt;: &lt;/span&gt;&lt;span class=&quot;mtk16&quot; style=&quot;color: rgb(78 , 201 , 176) ; font-family: &amp;#34;consolas&amp;#34; , &amp;#34;courier new&amp;#34; , monospace ; font-size: 14px ; background-color: rgb(37 , 37 , 38)&quot;&gt;WeakMap&lt;/span&gt;&lt;span class=&quot;mtk1&quot; style=&quot;color: rgb(212 , 212 , 212) ; font-family: &amp;#34;consolas&amp;#34; , &amp;#34;courier new&amp;#34; , monospace ; font-size: 14px ; background-color: rgb(37 , 37 , 38)&quot;&gt;&amp;lt;&lt;/span&gt;&lt;span class=&quot;mtk16&quot; style=&quot;color: rgb(78 , 201 , 176) ; font-family: &amp;#34;consolas&amp;#34; , &amp;#34;courier new&amp;#34; , monospace ; font-size: 14px ; background-color: rgb(37 , 37 , 38)&quot;&gt;target&lt;/span&gt;&lt;span class=&quot;mtk1&quot; style=&quot;color: rgb(212 , 212 , 212) ; font-family: &amp;#34;consolas&amp;#34; , &amp;#34;courier new&amp;#34; , monospace ; font-size: 14px ; background-color: rgb(37 , 37 , 38)&quot;&gt;, &lt;/span&gt;&lt;span class=&quot;mtk16&quot; style=&quot;color: rgb(78 , 201 , 176) ; font-family: &amp;#34;consolas&amp;#34; , &amp;#34;courier new&amp;#34; , monospace ; font-size: 14px ; background-color: rgb(37 , 37 , 38)&quot;&gt;Proxy&lt;/span&gt;&lt;span class=&quot;mtk1&quot; style=&quot;color: rgb(212 , 212 , 212) ; font-family: &amp;#34;consolas&amp;#34; , &amp;#34;courier new&amp;#34; , monospace ; font-size: 14px ; background-color: rgb(37 , 37 , 38)&quot;&gt;&amp;gt;&lt;/span&gt;" style="rounded=0;whiteSpace=wrap;html=1;" vertex="1" parent="1">
                    <mxGeometry x="-270" y="30" width="400" height="30" as="geometry"/>
                </mxCell>
                <mxCell id="16" value="&lt;div class=&quot;monaco-hover-content&quot; style=&quot;font-family: &amp;#34;segoe wpc&amp;#34; , &amp;#34;segoe ui&amp;#34; , &amp;#34;microsoft yahei&amp;#34; , sans-serif ; background-color: rgb(37 , 37 , 38) ; overflow: hidden ; font-size: 14px ; line-height: 19px ; max-height: 250px ; max-width: 617.76px&quot;&gt;&lt;div class=&quot;hover-row markdown-hover&quot;&gt;&lt;div class=&quot;hover-contents code-hover-contents&quot; style=&quot;padding: 4px 8px&quot;&gt;&lt;div class=&quot;code&quot; style=&quot;margin: 0px ; font-family: &amp;#34;consolas&amp;#34; , &amp;#34;courier new&amp;#34; , monospace ; line-height: 19px ; letter-spacing: 0px&quot;&gt;&lt;div class=&quot;monaco-tokenized-source&quot; style=&quot;word-break: break-all&quot;&gt;&lt;span class=&quot;mtk5&quot; style=&quot;color: rgb(86 , 156 , 214)&quot;&gt;const&lt;/span&gt;&lt;span class=&quot;mtk1&quot; style=&quot;color: rgb(212 , 212 , 212)&quot;&gt; &lt;/span&gt;&lt;span class=&quot;mtk18&quot; style=&quot;color: rgb(79 , 193 , 255)&quot;&gt;targetMap&lt;/span&gt;&lt;span class=&quot;mtk1&quot; style=&quot;color: rgb(212 , 212 , 212)&quot;&gt;: &lt;/span&gt;&lt;span class=&quot;mtk16&quot; style=&quot;color: rgb(78 , 201 , 176)&quot;&gt;WeakMap&lt;/span&gt;&lt;span class=&quot;mtk1&quot; style=&quot;color: rgb(212 , 212 , 212)&quot;&gt;&amp;lt;&lt;/span&gt;&lt;span class=&quot;mtk1&quot;&gt;&lt;font color=&quot;#4ec9b0&quot;&gt;target&lt;/font&gt;&lt;/span&gt;&lt;span class=&quot;mtk1&quot; style=&quot;color: rgb(212 , 212 , 212)&quot;&gt;, &lt;/span&gt;&lt;span class=&quot;mtk16&quot; style=&quot;color: rgb(78 , 201 , 176)&quot;&gt;KeyToDepMap&lt;/span&gt;&lt;span class=&quot;mtk1&quot; style=&quot;color: rgb(212 , 212 , 212)&quot;&gt;&amp;gt;&lt;/span&gt;&lt;/div&gt;&lt;/div&gt;&lt;/div&gt;&lt;/div&gt;&lt;/div&gt;&lt;div class=&quot;invisible scrollbar horizontal&quot; style=&quot;opacity: 0 ; color: rgb(204 , 204 , 204) ; font-family: &amp;#34;segoe wpc&amp;#34; , &amp;#34;segoe ui&amp;#34; , &amp;#34;microsoft yahei&amp;#34; , sans-serif ; font-size: 13px ; background-color: rgb(37 , 37 , 38) ; position: absolute ; width: 329px ; height: 10px ; left: 0px ; bottom: 0px&quot;&gt;&lt;/div&gt;" style="rounded=0;whiteSpace=wrap;html=1;" vertex="1" parent="1">
                    <mxGeometry x="-270" y="-50" width="400" height="30" as="geometry"/>
                </mxCell>
                <mxCell id="7" value="&lt;div class=&quot;monaco-hover-content&quot; style=&quot;color: rgb(204 , 204 , 204) ; font-family: &amp;#34;segoe wpc&amp;#34; , &amp;#34;segoe ui&amp;#34; , &amp;#34;microsoft yahei&amp;#34; , sans-serif ; background-color: rgb(37 , 37 , 38) ; overflow: hidden ; font-size: 14px ; line-height: 19px ; max-height: 250px ; max-width: 617.76px&quot;&gt;&lt;div class=&quot;hover-row markdown-hover&quot;&gt;&lt;div class=&quot;hover-contents code-hover-contents&quot; style=&quot;padding: 4px 8px&quot;&gt;&lt;div class=&quot;code&quot; style=&quot;margin: 0px ; font-family: &amp;#34;consolas&amp;#34; , &amp;#34;courier new&amp;#34; , monospace ; line-height: 19px ; letter-spacing: 0px&quot;&gt;&lt;div class=&quot;monaco-tokenized-source&quot; style=&quot;word-break: break-all&quot;&gt;&lt;span class=&quot;mtk5&quot; style=&quot;color: rgb(86 , 156 , 214)&quot;&gt;const&lt;/span&gt;&lt;span class=&quot;mtk1&quot; style=&quot;color: rgb(212 , 212 , 212)&quot;&gt; &lt;/span&gt;&lt;span class=&quot;mtk18&quot; style=&quot;color: rgb(79 , 193 , 255)&quot;&gt;readonlyToRaw&lt;/span&gt;&lt;span class=&quot;mtk1&quot; style=&quot;color: rgb(212 , 212 , 212)&quot;&gt;: &lt;/span&gt;&lt;span class=&quot;mtk16&quot; style=&quot;color: rgb(78 , 201 , 176)&quot;&gt;WeakMap&lt;/span&gt;&lt;span class=&quot;mtk1&quot; style=&quot;color: rgb(212 , 212 , 212)&quot;&gt;&amp;lt;P&lt;/span&gt;&lt;span class=&quot;mtk16&quot; style=&quot;color: rgb(78 , 201 , 176)&quot;&gt;roxy&lt;/span&gt;&lt;span class=&quot;mtk1&quot; style=&quot;color: rgb(212 , 212 , 212)&quot;&gt;, &lt;/span&gt;&lt;span class=&quot;mtk16&quot; style=&quot;color: rgb(78 , 201 , 176)&quot;&gt;target&lt;/span&gt;&lt;span class=&quot;mtk1&quot; style=&quot;color: rgb(212 , 212 , 212)&quot;&gt;&amp;gt;&lt;/span&gt;&lt;/div&gt;&lt;/div&gt;&lt;/div&gt;&lt;/div&gt;&lt;/div&gt;&lt;div class=&quot;invisible scrollbar horizontal&quot; style=&quot;opacity: 0 ; color: rgb(204 , 204 , 204) ; font-family: &amp;#34;segoe wpc&amp;#34; , &amp;#34;segoe ui&amp;#34; , &amp;#34;microsoft yahei&amp;#34; , sans-serif ; font-size: 13px ; background-color: rgb(37 , 37 , 38) ; position: absolute ; width: 299px ; height: 10px ; left: 0px ; bottom: 0px&quot;&gt;&lt;/div&gt;" style="rounded=0;whiteSpace=wrap;html=1;" vertex="1" parent="1">
                    <mxGeometry x="-270" y="100" width="400" height="30" as="geometry"/>
                </mxCell>
                <mxCell id="25" style="edgeStyle=orthogonalEdgeStyle;rounded=0;orthogonalLoop=1;jettySize=auto;html=1;entryX=0;entryY=0.5;entryDx=0;entryDy=0;" edge="1" parent="1" source="24" target="2">
                    <mxGeometry relative="1" as="geometry"/>
                </mxCell>
                <mxCell id="24" value="reactive({&lt;br&gt;a:1&lt;br&gt;})" style="rounded=0;align=left;verticalAlign=middle;whiteSpace=wrap;html=1;labelBackgroundColor=none;fillColor=none;strokeColor=none;" vertex="1" parent="1">
                    <mxGeometry x="-910" y="255" width="110" height="60" as="geometry"/>
                </mxCell>
                <mxCell id="30" value="" style="rhombus;whiteSpace=wrap;html=1;fillColor=#ffffc0;strokeColor=#ff0000;labelBackgroundColor=none;align=left;" vertex="1" parent="1">
                    <mxGeometry x="-155" y="435" width="80" height="40" as="geometry"/>
                </mxCell>
                <mxCell id="31" value="no" style="edgeStyle=orthogonalEdgeStyle;html=1;align=left;verticalAlign=bottom;endArrow=open;endSize=8;strokeColor=#ff0000;" edge="1" source="30" parent="1" target="12">
                    <mxGeometry x="-1" relative="1" as="geometry">
                        <mxPoint x="-120" y="620" as="targetPoint"/>
                    </mxGeometry>
                </mxCell>
                <mxCell id="32" value="yes" style="edgeStyle=orthogonalEdgeStyle;html=1;align=left;verticalAlign=top;endArrow=open;endSize=8;strokeColor=#ff0000;" edge="1" source="30" parent="1" target="21">
                    <mxGeometry x="0.3191" y="95" relative="1" as="geometry">
                        <mxPoint x="-260" y="700" as="targetPoint"/>
                        <mxPoint as="offset"/>
                    </mxGeometry>
                </mxCell>
                <mxCell id="34" value="&lt;!--StartFragment--&gt;&lt;span class=&quot;mtk1&quot; style=&quot;font-style: normal; font-variant-ligatures: normal; font-variant-caps: normal; font-weight: 400; letter-spacing: normal; orphans: 2; text-align: center; text-indent: 0px; text-transform: none; widows: 2; word-spacing: 0px; -webkit-text-stroke-width: 0px; text-decoration-style: initial; text-decoration-color: initial; color: rgb(212, 212, 212); font-family: consolas, &amp;quot;courier new&amp;quot;, monospace; font-size: 14px; background-color: rgb(37, 37, 38);&quot;&gt;判断target是否：[&lt;/span&gt;&lt;span class=&quot;mtk16&quot; style=&quot;font-style: normal; font-variant-ligatures: normal; font-variant-caps: normal; font-weight: 400; letter-spacing: normal; orphans: 2; text-align: center; text-indent: 0px; text-transform: none; widows: 2; word-spacing: 0px; -webkit-text-stroke-width: 0px; text-decoration-style: initial; text-decoration-color: initial; font-family: consolas, &amp;quot;courier new&amp;quot;, monospace; font-size: 14px; color: rgb(78, 201, 176); background-color: rgb(37, 37, 38);&quot;&gt;Set&lt;/span&gt;&lt;span class=&quot;mtk1&quot; style=&quot;font-style: normal; font-variant-ligatures: normal; font-variant-caps: normal; font-weight: 400; letter-spacing: normal; orphans: 2; text-align: center; text-indent: 0px; text-transform: none; widows: 2; word-spacing: 0px; -webkit-text-stroke-width: 0px; text-decoration-style: initial; text-decoration-color: initial; color: rgb(212, 212, 212); font-family: consolas, &amp;quot;courier new&amp;quot;, monospace; font-size: 14px; background-color: rgb(37, 37, 38);&quot;&gt;,&amp;nbsp;&lt;/span&gt;&lt;span class=&quot;mtk16&quot; style=&quot;font-style: normal; font-variant-ligatures: normal; font-variant-caps: normal; font-weight: 400; letter-spacing: normal; orphans: 2; text-align: center; text-indent: 0px; text-transform: none; widows: 2; word-spacing: 0px; -webkit-text-stroke-width: 0px; text-decoration-style: initial; text-decoration-color: initial; font-family: consolas, &amp;quot;courier new&amp;quot;, monospace; font-size: 14px; color: rgb(78, 201, 176); background-color: rgb(37, 37, 38);&quot;&gt;Map&lt;/span&gt;&lt;span class=&quot;mtk1&quot; style=&quot;font-style: normal; font-variant-ligatures: normal; font-variant-caps: normal; font-weight: 400; letter-spacing: normal; orphans: 2; text-align: center; text-indent: 0px; text-transform: none; widows: 2; word-spacing: 0px; -webkit-text-stroke-width: 0px; text-decoration-style: initial; text-decoration-color: initial; color: rgb(212, 212, 212); font-family: consolas, &amp;quot;courier new&amp;quot;, monospace; font-size: 14px; background-color: rgb(37, 37, 38);&quot;&gt;,&amp;nbsp;&lt;/span&gt;&lt;span class=&quot;mtk16&quot; style=&quot;font-style: normal; font-variant-ligatures: normal; font-variant-caps: normal; font-weight: 400; letter-spacing: normal; orphans: 2; text-align: center; text-indent: 0px; text-transform: none; widows: 2; word-spacing: 0px; -webkit-text-stroke-width: 0px; text-decoration-style: initial; text-decoration-color: initial; font-family: consolas, &amp;quot;courier new&amp;quot;, monospace; font-size: 14px; color: rgb(78, 201, 176); background-color: rgb(37, 37, 38);&quot;&gt;WeakMap&lt;/span&gt;&lt;span class=&quot;mtk1&quot; style=&quot;font-style: normal; font-variant-ligatures: normal; font-variant-caps: normal; font-weight: 400; letter-spacing: normal; orphans: 2; text-align: center; text-indent: 0px; text-transform: none; widows: 2; word-spacing: 0px; -webkit-text-stroke-width: 0px; text-decoration-style: initial; text-decoration-color: initial; color: rgb(212, 212, 212); font-family: consolas, &amp;quot;courier new&amp;quot;, monospace; font-size: 14px; background-color: rgb(37, 37, 38);&quot;&gt;,&amp;nbsp;&lt;/span&gt;&lt;span class=&quot;mtk16&quot; style=&quot;font-style: normal; font-variant-ligatures: normal; font-variant-caps: normal; font-weight: 400; letter-spacing: normal; orphans: 2; text-align: center; text-indent: 0px; text-transform: none; widows: 2; word-spacing: 0px; -webkit-text-stroke-width: 0px; text-decoration-style: initial; text-decoration-color: initial; font-family: consolas, &amp;quot;courier new&amp;quot;, monospace; font-size: 14px; color: rgb(78, 201, 176); background-color: rgb(37, 37, 38);&quot;&gt;WeakSet&lt;/span&gt;&lt;span class=&quot;mtk1&quot; style=&quot;font-style: normal; font-variant-ligatures: normal; font-variant-caps: normal; font-weight: 400; letter-spacing: normal; orphans: 2; text-align: center; text-indent: 0px; text-transform: none; widows: 2; word-spacing: 0px; -webkit-text-stroke-width: 0px; text-decoration-style: initial; text-decoration-color: initial; color: rgb(212, 212, 212); font-family: consolas, &amp;quot;courier new&amp;quot;, monospace; font-size: 14px; background-color: rgb(37, 37, 38);&quot;&gt;]&lt;/span&gt;&lt;!--EndFragment--&gt;" style="text;whiteSpace=wrap;html=1;" vertex="1" parent="1">
                    <mxGeometry x="-260" y="360" width="360" height="30" as="geometry"/>
                </mxCell>
                <mxCell id="35" value="&lt;!--StartFragment--&gt;&lt;div style=&quot;color: rgb(212, 212, 212); background-color: rgb(30, 30, 30); font-family: Consolas, &amp;quot;Courier New&amp;quot;, monospace; font-weight: normal; font-size: 14px; line-height: 19px;&quot;&gt;&lt;div&gt;&lt;span style=&quot;color: #6a9955;&quot;&gt;//&amp;nbsp;是否是&amp;nbsp;Set,&amp;nbsp;Map,&amp;nbsp;WeakMap,&amp;nbsp;WeakSet，几种类型，如果是的话，采用集合处理方式，否则采用基础处理方式&lt;/span&gt;&lt;/div&gt;&lt;div&gt;&lt;span style=&quot;color: #d4d4d4;&quot;&gt;&amp;nbsp;&amp;nbsp;&lt;/span&gt;&lt;span style=&quot;color: #569cd6;&quot;&gt;const&lt;/span&gt;&lt;span style=&quot;color: #d4d4d4;&quot;&gt;&amp;nbsp;&lt;/span&gt;&lt;span style=&quot;color: #4fc1ff;&quot;&gt;handlers&lt;/span&gt;&lt;span style=&quot;color: #d4d4d4;&quot;&gt;&amp;nbsp;=&amp;nbsp;&lt;/span&gt;&lt;span style=&quot;color: #4fc1ff;&quot;&gt;collectionTypes&lt;/span&gt;&lt;span style=&quot;color: #d4d4d4;&quot;&gt;.&lt;/span&gt;&lt;span style=&quot;color: #dcdcaa;&quot;&gt;has&lt;/span&gt;&lt;span style=&quot;color: #d4d4d4;&quot;&gt;(&lt;/span&gt;&lt;span style=&quot;color: #9cdcfe;&quot;&gt;target&lt;/span&gt;&lt;span style=&quot;color: #d4d4d4;&quot;&gt;.&lt;/span&gt;&lt;span style=&quot;color: #9cdcfe;&quot;&gt;constructor&lt;/span&gt;&lt;span style=&quot;color: #d4d4d4;&quot;&gt;)&lt;/span&gt;&lt;/div&gt;&lt;div&gt;&lt;span style=&quot;color: #d4d4d4;&quot;&gt;&amp;nbsp;&amp;nbsp;&amp;nbsp;&amp;nbsp;?&amp;nbsp;&lt;/span&gt;&lt;span style=&quot;color: #9cdcfe;&quot;&gt;collectionHandlers&lt;/span&gt;&lt;/div&gt;&lt;div&gt;&lt;span style=&quot;color: #d4d4d4;&quot;&gt;&amp;nbsp;&amp;nbsp;&amp;nbsp;&amp;nbsp;:&amp;nbsp;&lt;/span&gt;&lt;span style=&quot;color: #9cdcfe;&quot;&gt;baseHandlers&lt;/span&gt;&lt;/div&gt;&lt;div&gt;&lt;span style=&quot;color: #d4d4d4;&quot;&gt;&amp;nbsp;&amp;nbsp;&lt;/span&gt;&lt;span style=&quot;color: #6a9955;&quot;&gt;//&amp;nbsp;给它挂上代理&lt;/span&gt;&lt;/div&gt;&lt;div&gt;&lt;span style=&quot;color: #d4d4d4;&quot;&gt;&amp;nbsp;&amp;nbsp;&lt;/span&gt;&lt;span style=&quot;color: #9cdcfe;&quot;&gt;observed&lt;/span&gt;&lt;span style=&quot;color: #d4d4d4;&quot;&gt;&amp;nbsp;=&amp;nbsp;&lt;/span&gt;&lt;span style=&quot;color: #569cd6;&quot;&gt;new&lt;/span&gt;&lt;span style=&quot;color: #d4d4d4;&quot;&gt;&amp;nbsp;&lt;/span&gt;&lt;span style=&quot;color: #4ec9b0;&quot;&gt;Proxy&lt;/span&gt;&lt;span style=&quot;color: #d4d4d4;&quot;&gt;(&lt;/span&gt;&lt;span style=&quot;color: #9cdcfe;&quot;&gt;target&lt;/span&gt;&lt;span style=&quot;color: #d4d4d4;&quot;&gt;,&amp;nbsp;&lt;/span&gt;&lt;span style=&quot;color: #4fc1ff;&quot;&gt;handlers&lt;/span&gt;&lt;span style=&quot;color: #d4d4d4;&quot;&gt;)&lt;/span&gt;&lt;/div&gt;&lt;/div&gt;&lt;!--EndFragment--&gt;" style="text;whiteSpace=wrap;html=1;" vertex="1" parent="1">
                    <mxGeometry x="-295" y="410" width="550" height="150" as="geometry"/>
                </mxCell>
            </root>
        </mxGraphModel>
    </diagram>
</mxfile>